#tb 0: 6/25
#media_type 0: video
#codec_id 0: rawvideo
#dimensions 0: 352x288
#sar 0: 0/1
0,          0,          0,        1,   152064, 0x999eb961
0,          1,          1,        1,   152064, 0x0e947017
0,          2,          2,        1,   152064, 0x2f338ae6
0,          3,          3,        1,   152064, 0x4ead448b
0,          4,          4,        1,   152064, 0x6aef2c67
0,          5,          5,        1,   152064, 0x809df637
0,          6,          6,        1,   152064, 0x57b0bd89
0,          7,          7,        1,   152064, 0x3649efd8
